<svg width="28" height="25" viewBox="0 0 28 25" fill="none" xmlns="http://www.w3.org/2000/svg">
<path d="M13.624 25L11.6485 23.2289C9.35513 21.1626 7.45913 19.3801 5.96049 17.8815C4.46185 16.3828 3.26975 15.0372 2.3842 13.8447C1.49864 12.653 0.880109 11.5577 0.52861 10.5586C0.177112 9.55949 0.000908265 8.53769 0 7.49319C0 5.35876 0.715259 3.57629 2.14578 2.14578C3.57629 0.715259 5.35876 0 7.49319 0C8.67393 0 9.79791 0.249773 10.8651 0.749319C11.9323 1.24886 12.852 1.95277 13.624 2.86104C14.396 1.95277 15.3156 1.24886 16.3828 0.749319C17.45 0.249773 18.574 0 19.7548 0C21.8892 0 23.6717 0.715259 25.1022 2.14578C26.5327 3.57629 27.248 5.35876 27.248 7.49319C27.248 8.53769 27.0718 9.55949 26.7193 10.5586C26.3669 11.5577 25.7484 12.653 24.8638 13.8447C23.9782 15.0372 22.7861 16.3828 21.2875 17.8815C19.7888 19.3801 17.8928 21.1626 15.5995 23.2289L13.624 25Z" fill="#F0F0F0"/>
</svg>
