<svg width="14" height="14" viewBox="0 0 14 14" fill="none" xmlns="http://www.w3.org/2000/svg">
<path d="M7.71961 0.000861233C8.2304 -0.00109882 8.74118 0.0040348 9.25183 0.0162605L9.38762 0.0211602C9.54441 0.0267599 9.69911 0.0337596 9.886 0.0421591C10.6308 0.0771573 11.1389 0.194751 11.5848 0.367643C12.0468 0.545433 12.436 0.786221 12.8251 1.1754C13.181 1.52511 13.4564 1.94812 13.6322 2.41504C13.8051 2.86091 13.9227 3.36979 13.9577 4.11455C13.9661 4.30074 13.9731 4.45613 13.9787 4.61292L13.9829 4.74872C13.9953 5.25913 14.0007 5.76968 13.999 6.28024L13.9997 6.80241V7.71937C14.0014 8.23016 13.996 8.74095 13.9836 9.25159L13.9794 9.38738C13.9738 9.54417 13.9668 9.69886 13.9584 9.88575C13.9234 10.6305 13.8044 11.1387 13.6322 11.5846C13.457 12.052 13.1815 12.4753 12.8251 12.8249C12.4751 13.1807 12.0519 13.4561 11.5848 13.632C11.1389 13.8049 10.6308 13.9224 9.886 13.9574C9.69911 13.9658 9.54441 13.9728 9.38762 13.9784L9.25183 13.9826C8.74119 13.9951 8.2304 14.0005 7.71961 13.9987L7.19743 13.9994H6.28118C5.77039 14.0012 5.2596 13.9958 4.74896 13.9833L4.61317 13.9791C4.447 13.9731 4.28087 13.9661 4.11479 13.9581C3.37003 13.9231 2.86186 13.8042 2.41528 13.632C1.94818 13.4565 1.52509 13.1811 1.17564 12.8249C0.819394 12.4751 0.543733 12.0518 0.367885 11.5846C0.194994 11.1387 0.0773999 10.6305 0.0424017 9.88575C0.0346061 9.71966 0.0276064 9.55354 0.0214028 9.38738L0.017903 9.25159C0.00499822 8.74095 -0.00083544 8.23016 0.00040388 7.71937V6.28024C-0.0015497 5.76969 0.00358392 5.25913 0.0158031 4.74872L0.0207029 4.61292C0.0263026 4.45613 0.0333022 4.30074 0.0417018 4.11455C0.0767 3.36909 0.194294 2.86161 0.367185 2.41504C0.543137 1.9479 0.819337 1.52499 1.17634 1.1761C1.52555 0.819646 1.94838 0.543734 2.41528 0.367643C2.86186 0.194751 3.36933 0.0771573 4.11479 0.0421591L4.61317 0.0211602L4.74896 0.0176605C5.25936 0.00476212 5.76992 -0.00107154 6.28048 0.000161319L7.71961 0.000861233ZM7.00004 3.50068C6.53632 3.49412 6.07592 3.57979 5.6456 3.75272C5.21527 3.92564 4.82361 4.18236 4.49337 4.50797C4.16312 4.83357 3.90088 5.22157 3.72189 5.64941C3.5429 6.07724 3.45073 6.53638 3.45073 7.00015C3.45073 7.46392 3.5429 7.92306 3.72189 8.3509C3.90088 8.77874 4.16312 9.16673 4.49337 9.49234C4.82361 9.81794 5.21527 10.0747 5.6456 10.2476C6.07592 10.4205 6.53632 10.5062 7.00004 10.4996C7.92826 10.4996 8.81845 10.1309 9.47479 9.47455C10.1311 8.81821 10.4999 7.92801 10.4999 6.9998C10.4999 6.07159 10.1311 5.1814 9.47479 4.52506C8.81845 3.86871 7.92826 3.50068 7.00004 3.50068ZM7.00004 4.90061C7.27899 4.89547 7.55615 4.94597 7.81536 5.04915C8.07457 5.15233 8.31061 5.30613 8.50971 5.50156C8.70881 5.69699 8.86697 5.93014 8.97495 6.18738C9.08294 6.44463 9.13858 6.72081 9.13862 6.9998C9.13867 7.27878 9.08312 7.55498 8.97523 7.81226C8.86733 8.06954 8.70925 8.30274 8.51021 8.49824C8.31118 8.69374 8.07518 8.84762 7.81601 8.95089C7.55684 9.05415 7.27969 9.10474 7.00075 9.09969C6.44382 9.09969 5.9097 8.87846 5.5159 8.48465C5.12209 8.09084 4.90085 7.55673 4.90085 6.9998C4.90085 6.44288 5.12209 5.90876 5.5159 5.51495C5.9097 5.12115 6.44382 4.89991 7.00075 4.89991L7.00004 4.90061ZM10.6749 2.45074C10.449 2.45977 10.2355 2.55584 10.0789 2.7188C9.92234 2.88177 9.83489 3.099 9.83489 3.32499C9.83489 3.55098 9.92234 3.76821 10.0789 3.93118C10.2355 4.09415 10.449 4.19021 10.6749 4.19925C10.9069 4.19925 11.1295 4.10706 11.2935 3.94298C11.4576 3.77889 11.5498 3.55634 11.5498 3.32429C11.5498 3.09224 11.4576 2.86969 11.2935 2.7056C11.1295 2.54152 10.9069 2.44934 10.6749 2.44934V2.45074Z" fill="#FF5353"/>
</svg>
