<svg width="20" height="25" viewBox="0 0 20 25" fill="none" xmlns="http://www.w3.org/2000/svg">
<path d="M0 21.25V18.75H2.5V10C2.5 8.27083 3.02083 6.73417 4.0625 5.39C5.10417 4.04584 6.45833 3.16584 8.125 2.75V1.875C8.125 1.35417 8.3075 0.911253 8.6725 0.546253C9.0375 0.181253 9.48 -0.000830486 10 2.84738e-06C10.5208 2.84738e-06 10.9637 0.182503 11.3287 0.547503C11.6937 0.912503 11.8758 1.355 11.875 1.875V2.75C13.5417 3.16667 14.8958 4.04709 15.9375 5.39125C16.9792 6.73542 17.5 8.27167 17.5 10V18.75H20V21.25H0ZM10 25C9.3125 25 8.72375 24.755 8.23375 24.265C7.74375 23.775 7.49917 23.1867 7.5 22.5H12.5C12.5 23.1875 12.255 23.7762 11.765 24.2662C11.275 24.7562 10.6867 25.0008 10 25Z" fill="white"/>
</svg>
