<svg width="27" height="25" viewBox="0 0 27 25" fill="none" xmlns="http://www.w3.org/2000/svg">
<path d="M26.1055 0.0254724C25.8942 -0.0247776 25.6719 0.00234437 25.4789 0.101922L24.1067 0.78718L22.7228 0.0952258C22.5988 0.0332452 22.4621 0.000977326 22.3235 0.000977326C22.1849 0.000977326 22.0482 0.0332452 21.9242 0.0952258L20.523 0.787738L19.1402 0.0952258C19.0159 0.0327921 18.8787 0.000278365 18.7396 0.000278365C18.6005 0.000278365 18.4633 0.0327921 18.3389 0.0952258L16.9639 0.785506L15.5996 0.0968998C15.4756 0.0340367 15.3386 0.000998756 15.1996 0.000417476C15.0605 -0.000163804 14.9233 0.0317276 14.7988 0.0935516L13.3926 0.788296L12.0087 0.0946677C11.8845 0.0327167 11.7476 0.000469203 11.6088 0.000469203C11.4701 0.000469203 11.3332 0.0327167 11.209 0.0946677L9.82118 0.78718L8.43504 0.0946677C8.25635 0.00509198 8.05276 -0.0219277 7.85688 0.0179355C7.66101 0.0577986 7.48417 0.162239 7.3547 0.314531C7.21515 0.480857 7.13991 0.691732 7.14265 0.90883V14.2859L7.14544 14.2887H17.8568C18.3304 14.2887 18.7846 14.4768 19.1195 14.8117C19.4543 15.1466 19.6425 15.6008 19.6425 16.0743V21.875C19.6425 23.601 21.4879 25 23.2138 25H23.8835C24.6531 25 25.3911 24.6943 25.9353 24.1501C26.4795 23.6059 26.7852 22.8678 26.7852 22.0983V0.893205C26.7854 0.693369 26.7185 0.499257 26.5953 0.341937C26.472 0.184616 26.2996 0.0731831 26.1055 0.0254724ZM22.321 11.6073H15.2062C14.724 11.6073 14.3077 11.2368 14.2865 10.7547C14.2811 10.6342 14.3001 10.5138 14.3425 10.4009C14.3849 10.288 14.4497 10.1848 14.533 10.0976C14.6163 10.0104 14.7165 9.941 14.8274 9.89357C14.9383 9.84614 15.0576 9.82168 15.1782 9.82165H22.2931C22.7752 9.82165 23.1915 10.1922 23.2127 10.6743C23.2182 10.7948 23.1991 10.9151 23.1568 11.0281C23.1144 11.141 23.0496 11.2442 22.9663 11.3314C22.8829 11.4186 22.7828 11.488 22.6719 11.5354C22.561 11.5828 22.4416 11.6073 22.321 11.6073ZM22.321 7.14312H11.6348C11.1526 7.14312 10.7363 6.77258 10.7151 6.29045C10.7097 6.16996 10.7288 6.04961 10.7711 5.93668C10.8135 5.82375 10.8783 5.72057 10.9616 5.63338C11.045 5.54618 11.1451 5.47678 11.256 5.42935C11.3669 5.38192 11.4863 5.35746 11.6069 5.35743H22.2931C22.7752 5.35743 23.1915 5.72796 23.2127 6.21009C23.2182 6.33059 23.1991 6.45093 23.1568 6.56386C23.1144 6.67679 23.0496 6.77997 22.9663 6.86716C22.8829 6.95436 22.7828 7.02376 22.6719 7.07119C22.561 7.11862 22.4416 7.14309 22.321 7.14312Z" fill="#F0F0F0"/>
<path d="M17.8569 21.875V16.9644C17.8569 16.7276 17.7628 16.5005 17.5954 16.333C17.4279 16.1656 17.2008 16.0715 16.964 16.0715H1.78569C1.31207 16.073 0.858302 16.262 0.52366 16.5972C0.189017 16.9323 0.000735438 17.3864 0 17.86C0 20.6808 0.32254 21.8538 0.806908 22.7467C1.62888 24.2628 3.11714 25 5.35707 25H19.0667C19.1107 25 19.1538 24.987 19.1905 24.9626C19.2271 24.9383 19.2558 24.9036 19.2728 24.8629C19.2898 24.8223 19.2944 24.7776 19.286 24.7343C19.2776 24.6911 19.2567 24.6513 19.2257 24.62C18.6978 24.0904 17.8569 23.3817 17.8569 21.875Z" fill="#F0F0F0"/>
</svg>
