<svg width="11" height="12" viewBox="0 0 11 12" fill="none" xmlns="http://www.w3.org/2000/svg">
<path d="M10.2545 2.18182H8.29091V1.52727C8.29091 1.12221 8.13 0.733747 7.84358 0.447328C7.55716 0.160909 7.16869 0 6.76364 0H4.14545C3.7404 0 3.35193 0.160909 3.06551 0.447328C2.77909 0.733747 2.61818 1.12221 2.61818 1.52727V2.18182H0.654545C0.480949 2.18182 0.314463 2.25078 0.191712 2.37353C0.0689609 2.49628 0 2.66277 0 2.83636C0 3.00996 0.0689609 3.17645 0.191712 3.2992C0.314463 3.42195 0.480949 3.49091 0.654545 3.49091H0.872727V10.9091C0.872727 11.1984 0.987662 11.4759 1.19225 11.6805C1.39683 11.8851 1.67431 12 1.96364 12H8.94545C9.23478 12 9.51226 11.8851 9.71684 11.6805C9.92143 11.4759 10.0364 11.1984 10.0364 10.9091V3.49091H10.2545C10.4281 3.49091 10.5946 3.42195 10.7174 3.2992C10.8401 3.17645 10.9091 3.00996 10.9091 2.83636C10.9091 2.66277 10.8401 2.49628 10.7174 2.37353C10.5946 2.25078 10.4281 2.18182 10.2545 2.18182ZM3.92727 1.52727C3.92727 1.46941 3.95026 1.41391 3.99118 1.37299C4.03209 1.33208 4.08759 1.30909 4.14545 1.30909H6.76364C6.8215 1.30909 6.877 1.33208 6.91791 1.37299C6.95883 1.41391 6.98182 1.46941 6.98182 1.52727V2.18182H3.92727V1.52727ZM8.72727 10.6909H2.18182V3.49091H8.72727V10.6909ZM4.8 5.23636V8.72727C4.8 8.90087 4.73104 9.06735 4.60829 9.19011C4.48554 9.31286 4.31905 9.38182 4.14545 9.38182C3.97186 9.38182 3.80537 9.31286 3.68262 9.19011C3.55987 9.06735 3.49091 8.90087 3.49091 8.72727V5.23636C3.49091 5.06277 3.55987 4.89628 3.68262 4.77353C3.80537 4.65078 3.97186 4.58182 4.14545 4.58182C4.31905 4.58182 4.48554 4.65078 4.60829 4.77353C4.73104 4.89628 4.8 5.06277 4.8 5.23636ZM7.41818 5.23636V8.72727C7.41818 8.90087 7.34922 9.06735 7.22647 9.19011C7.10372 9.31286 6.93723 9.38182 6.76364 9.38182C6.59004 9.38182 6.42355 9.31286 6.3008 9.19011C6.17805 9.06735 6.10909 8.90087 6.10909 8.72727V5.23636C6.10909 5.06277 6.17805 4.89628 6.3008 4.77353C6.42355 4.65078 6.59004 4.58182 6.76364 4.58182C6.93723 4.58182 7.10372 4.65078 7.22647 4.77353C7.34922 4.89628 7.41818 5.06277 7.41818 5.23636Z" fill="white"/>
</svg>
