<?xml version="1.0" encoding="UTF-8" standalone="no"?>
<!-- Created with Inkscape (http://www.inkscape.org/) -->

<svg
   width="399.10242"
   height="407.30923"
   viewBox="0 0 105.59585 107.76723"
   version="1.1"
   id="svg5"
   inkscape:version="1.2.2 (1:1.2.2+202212051551+b0a8486541)"
   sodipodi:docname="takeout_express_main_illustration.svg"
   xmlns:inkscape="http://www.inkscape.org/namespaces/inkscape"
   xmlns:sodipodi="http://sodipodi.sourceforge.net/DTD/sodipodi-0.dtd"
   xmlns:xlink="http://www.w3.org/1999/xlink"
   xmlns="http://www.w3.org/2000/svg"
   xmlns:svg="http://www.w3.org/2000/svg">
  <sodipodi:namedview
     id="namedview7"
     pagecolor="#ffffff"
     bordercolor="#000000"
     borderopacity="0.25"
     inkscape:showpageshadow="2"
     inkscape:pageopacity="0.0"
     inkscape:pagecheckerboard="0"
     inkscape:deskcolor="#d1d1d1"
     inkscape:document-units="px"
     showgrid="false"
     inkscape:zoom="0.70021044"
     inkscape:cx="132.81721"
     inkscape:cy="150.66899"
     inkscape:window-width="1920"
     inkscape:window-height="952"
     inkscape:window-x="0"
     inkscape:window-y="27"
     inkscape:window-maximized="1"
     inkscape:current-layer="layer1" />
  <defs
     id="defs2">
    <linearGradient
       inkscape:collect="always"
       xlink:href="#linearGradient28137"
       id="linearGradient2967"
       gradientUnits="userSpaceOnUse"
       x1="1097.3669"
       y1="62.871922"
       x2="1011.3665"
       y2="103.68065" />
    <linearGradient
       inkscape:collect="always"
       id="linearGradient28137">
      <stop
         style="stop-color:#ffc100;stop-opacity:1;"
         offset="0"
         id="stop28133" />
      <stop
         style="stop-color:#ff6a00;stop-opacity:1;"
         offset="1"
         id="stop28135" />
    </linearGradient>
    <linearGradient
       inkscape:collect="always"
       xlink:href="#linearGradient3320"
       id="linearGradient2969"
       gradientUnits="userSpaceOnUse"
       x1="1022.7298"
       y1="114.03677"
       x2="1052.4886"
       y2="154.41275" />
    <linearGradient
       inkscape:collect="always"
       id="linearGradient3320">
      <stop
         style="stop-color:#ff6a00;stop-opacity:0.184843;"
         offset="0"
         id="stop3316" />
      <stop
         style="stop-color:#ff7f1d;stop-opacity:1;"
         offset="1"
         id="stop3318" />
    </linearGradient>
    <linearGradient
       inkscape:collect="always"
       xlink:href="#linearGradient37357"
       id="linearGradient2971"
       gradientUnits="userSpaceOnUse"
       gradientTransform="matrix(0.96772168,0,0,0.96772168,957.51644,-45.408848)"
       x1="102.71625"
       y1="159.87386"
       x2="76.550034"
       y2="157.61879" />
    <linearGradient
       inkscape:collect="always"
       id="linearGradient37357">
      <stop
         style="stop-color:#201204;stop-opacity:1;"
         offset="0"
         id="stop37353" />
      <stop
         style="stop-color:#8f3900;stop-opacity:1;"
         offset="1"
         id="stop37355" />
    </linearGradient>
    <linearGradient
       inkscape:collect="always"
       xlink:href="#linearGradient37339"
       id="linearGradient2973"
       gradientUnits="userSpaceOnUse"
       gradientTransform="matrix(0.96772168,0,0,0.96772168,957.51644,-45.408848)"
       x1="140.96062"
       y1="165.03151"
       x2="104.394"
       y2="179.88332" />
    <linearGradient
       inkscape:collect="always"
       id="linearGradient37339">
      <stop
         style="stop-color:#f5a270;stop-opacity:1;"
         offset="0"
         id="stop37335" />
      <stop
         style="stop-color:#ffa466;stop-opacity:1;"
         offset="1"
         id="stop37337" />
    </linearGradient>
    <linearGradient
       inkscape:collect="always"
       xlink:href="#linearGradient37345"
       id="linearGradient2975"
       gradientUnits="userSpaceOnUse"
       gradientTransform="matrix(0.96772168,0,0,0.96772168,957.51644,-45.408848)"
       x1="120.73126"
       y1="161.01462"
       x2="120.57699"
       y2="150.28743" />
    <linearGradient
       inkscape:collect="always"
       id="linearGradient37345">
      <stop
         style="stop-color:#ff9247;stop-opacity:1;"
         offset="0"
         id="stop37341" />
      <stop
         style="stop-color:#ff9247;stop-opacity:0;"
         offset="1"
         id="stop37343" />
    </linearGradient>
    <linearGradient
       inkscape:collect="always"
       xlink:href="#linearGradient37351"
       id="linearGradient2977"
       gradientUnits="userSpaceOnUse"
       gradientTransform="matrix(0.96772168,0,0,0.96772168,1179.0384,-48.333671)"
       x1="-108.05415"
       y1="150.93022"
       x2="-107.50199"
       y2="157.40714" />
    <linearGradient
       inkscape:collect="always"
       id="linearGradient37351">
      <stop
         style="stop-color:#ffb380;stop-opacity:1;"
         offset="0"
         id="stop37347" />
      <stop
         style="stop-color:#ffa466;stop-opacity:0;"
         offset="1"
         id="stop37349" />
    </linearGradient>
  </defs>
  <g
     inkscape:label="Layer 1"
     inkscape:groupmode="layer"
     id="layer1"
     transform="translate(-67.74024,-108.97516)">
    <g
       id="g2965"
       transform="translate(-925.7528,40.087934)">
      <g
         id="g2923"
         transform="rotate(10.939992,1041.6877,77.277359)">
        <path
           style="fill:url(#linearGradient2967);fill-opacity:1;stroke-width:0.0529167"
           d="m 1046.2536,164.97307 c 0,0 -4.1243,-4.49466 -6.5874,-6.25647 -83.55873,-39.13735 2.078,-106.192315 57.7007,-95.84468 -28.0654,-1.771313 -94.8494,36.647357 -36.5354,81.18732 l 30.748,1.47164 z"
           id="path2919"
           sodipodi:nodetypes="cccccc" />
        <path
           style="fill:url(#linearGradient2969);fill-opacity:1;stroke-width:0.0529167"
           d="m 1010.5794,99.95609 27.453,12.634 c 3.7062,17.1491 14.0842,22.8866 22.7989,31.46897 l 30.7481,1.47181 -45.3258,19.4422 c -2.3916,-2.51842 -4.73,-4.91933 -6.5874,-6.25647 -35.6201,-16.50294 -41.2087,-39.07352 -29.0868,-58.76051 z"
           id="path2921"
           sodipodi:nodetypes="ccccccc" />
      </g>
      <g
         id="g2963"
         transform="translate(-16.72604,30.258428)">
        <g
           id="g2933"
           transform="matrix(0.52966329,0,0,0.52966329,486.87321,-18.317163)">
          <g
             id="g2931">
            <path
               style="fill:#ffffff;fill-opacity:1;stroke-width:0.0529167"
               d="m 1059.237,165.29666 c 3.6116,3.32103 64.2251,32.35518 64.2251,32.35518 l 2.0451,37.14778 -7.5712,-27.14493 -55.392,-26.70743 z"
               id="path2925" />
            <path
               style="fill:#f2f2f2;fill-opacity:1;stroke-width:0.0529167"
               d="m 1071.4133,185.22363 5.3594,14.82451 43.1425,14.70258 -1.9792,-7.09603 z"
               id="path2927" />
            <path
               style="fill:#e5e5e5;fill-opacity:0.990185;stroke-width:0.0529167"
               d="m 1081.6182,201.69944 5.5309,13.05128 34.5725,6.47644 -1.8064,-6.47644 z"
               id="path2929" />
          </g>
        </g>
        <path
           style="fill:url(#linearGradient2971);fill-opacity:1;stroke-width:0.0346009"
           d="m 1076.8566,146.39603 -30.6029,-12.40861 7.8714,-10.56029 2.5266,-4.22378 -7.4082,-2.24168 -14.5243,-19.236772 29.2428,3.873022 -3.1304,11.47563 z"
           id="path2935"
           sodipodi:nodetypes="ccccccccc" />
        <path
           id="path2937"
           style="fill:#c0613f;fill-opacity:1;stroke-width:0.0346009"
           d="m 1034.7192,97.724778 14.5243,19.236892 5.7721,2.24168 -2.5268,4.22375 -6.2351,10.56032 30.6029,12.40861 c 0.4414,-14.84938 -5.2363,-22.16087 -16.0252,-33.32256 l -11.2916,-1.15866 -2.7153,-9.80415 10.4721,1.37086 -0.3794,5.82302 -4.9293,-0.0788 -1.2395,-4.73498 3.841,0.37304 0.393,3.43509 1.5425,0.8755 0.7339,-5.56318 -10.3313,-1.37661 3.3307,9.41862 10.5732,1.42019 3.1306,-11.4754 c -9.1763,-2.724241 -19.2412,-3.219609 -29.2428,-3.873259 z"
           sodipodi:nodetypes="cccccccccccccccccccccc" />
        <path
           style="fill:url(#linearGradient2973);fill-opacity:1;stroke-width:0.0346009"
           d="m 1034.7192,97.724932 47.7521,-1.515109 6.743,1.515109 -4.0475,10.551458 c 6.6664,5.84831 12.2253,12.41 15.8104,20.24338 l -24.1206,17.87626 c 0,-8.65243 -4.7323,-22.03815 -16.025,-33.32245 l 3.1304,-11.47562 z"
           id="path2939"
           sodipodi:nodetypes="ccccccccc" />
        <path
           style="fill:url(#linearGradient2975);fill-opacity:1;stroke-width:0.0512087"
           d="m 1063.962,101.59803 25.2523,-3.873098 -4.0475,10.551458 -24.3354,4.79704 z"
           id="path2941" />
        <g
           id="g2947"
           transform="matrix(0.96772168,0,0,0.96772168,957.51644,-45.408848)">
          <path
             style="fill:#ffdb4c;fill-opacity:1;stroke-width:0.0529167"
             d="m 117.43147,167.2094 13.02169,11.70546 6.10877,-1.53382 -6.73879,-16.09024 -0.94783,1.73181 3.58823,7.24063 -5.75298,-7.90203 -2.46642,1.22067 8.2194,9.864 -9.33213,-7.65955 -0.40995,1.85345 -1.54311,-2.69789 -1.52581,1.30205 2.54925,3.24232 -4.12156,-2.98043 z"
             id="path2943" />
          <path
             style="fill:#ff0f0f;fill-opacity:1;stroke-width:0.0529167"
             d="m 135.58929,170.10283 -17.26157,0.75149 c 2.87129,1.91851 11.16786,9.0241 14.38328,14.5257 l 9.43496,-6.46516 c -2.20098,-6.10652 -5.5565,-8.26638 -6.55667,-8.81203 z"
             id="path2945"
             sodipodi:nodetypes="ccccc" />
        </g>
        <path
           style="fill:#663724;fill-opacity:1;stroke:none;stroke-width:0;stroke-dasharray:none"
           d="m 1060.8314,113.07343 24.3354,-4.79704 0.545,0.69764 -24.8802,4.09955 z"
           id="path2949"
           sodipodi:nodetypes="ccccc" />
        <path
           style="fill:url(#linearGradient2977);fill-opacity:1;stroke:none;stroke-width:0;stroke-dasharray:none"
           d="m 1034.7193,97.724778 47.7521,-1.515109 c 2.2149,0.235857 4.4582,0.70613 6.743,1.515109 l -25.2523,3.873102 c -8.6653,-2.643427 -18.992,-3.208414 -29.2428,-3.873102 z"
           id="path2951"
           sodipodi:nodetypes="ccccc" />
        <g
           id="g2961"
           transform="matrix(0.69396964,0,0,0.69396964,275.14076,-47.446386)">
          <g
             id="g2959">
            <path
               style="fill:#ffffff;fill-opacity:1;stroke-width:0.0529167"
               d="m 1059.237,165.29666 c 3.6116,3.32103 64.2251,32.35518 64.2251,32.35518 l 2.0451,37.14778 -7.5712,-27.14493 -55.392,-26.70743 z"
               id="path2953" />
            <path
               style="fill:#f2f2f2;fill-opacity:1;stroke-width:0.0529167"
               d="m 1071.4133,185.22363 5.3594,14.82451 43.1425,14.70258 -1.9792,-7.09603 z"
               id="path2955" />
            <path
               style="fill:#e5e5e5;fill-opacity:0.993201;stroke-width:0.0529167"
               d="m 1081.6182,201.69944 5.5309,13.05128 34.5725,6.47644 -1.8064,-6.47644 z"
               id="path2957" />
          </g>
        </g>
      </g>
    </g>
  </g>
</svg>
