<?xml version="1.0" encoding="UTF-8" standalone="no"?>
<!-- Created with Inkscape (http://www.inkscape.org/) -->

<svg
   width="340.09402"
   height="186.4314"
   viewBox="0 0 89.983209 49.32664"
   version="1.1"
   id="svg5"
   inkscape:version="1.2.2 (1:1.2.2+202212051551+b0a8486541)"
   sodipodi:docname="takeout_express_text_logo.svg"
   xmlns:inkscape="http://www.inkscape.org/namespaces/inkscape"
   xmlns:sodipodi="http://sodipodi.sourceforge.net/DTD/sodipodi-0.dtd"
   xmlns="http://www.w3.org/2000/svg"
   xmlns:svg="http://www.w3.org/2000/svg">
  <sodipodi:namedview
     id="namedview7"
     pagecolor="#ffffff"
     bordercolor="#000000"
     borderopacity="0.25"
     inkscape:showpageshadow="2"
     inkscape:pageopacity="0.0"
     inkscape:pagecheckerboard="0"
     inkscape:deskcolor="#d1d1d1"
     inkscape:document-units="px"
     showgrid="false"
     inkscape:zoom="0.70021044"
     inkscape:cx="84.260383"
     inkscape:cy="223.50424"
     inkscape:window-width="1920"
     inkscape:window-height="952"
     inkscape:window-x="0"
     inkscape:window-y="27"
     inkscape:window-maximized="1"
     inkscape:current-layer="layer1" />
  <defs
     id="defs2">
    <inkscape:path-effect
       effect="perspective-envelope"
       up_left_point="896.20639,32.073109"
       up_right_point="966.90898,32.073109"
       down_left_point="896.21192,59.181179"
       down_right_point="966.90913,47.445318"
       id="path-effect1968"
       is_visible="true"
       lpeversion="1"
       deform_type="perspective"
       horizontal_mirror="false"
       vertical_mirror="false"
       overflow_perspective="false" />
    <inkscape:path-effect
       effect="perspective-envelope"
       up_left_point="896.27183,3.6766397"
       up_right_point="966.909,15.449493"
       down_left_point="895.97765,28.873589"
       down_right_point="966.90886,28.873589"
       id="path-effect1972"
       is_visible="true"
       lpeversion="1"
       deform_type="perspective"
       horizontal_mirror="false"
       vertical_mirror="false"
       overflow_perspective="false" />
  </defs>
  <g
     inkscape:label="Layer 1"
     inkscape:groupmode="layer"
     id="layer1"
     transform="translate(-80.458764,-89.451183)">
    <g
       id="g1964"
       transform="translate(-796.4671,84.777105)">
      <g
         id="g1950"
         transform="matrix(0.43797679,0,0,0.43797679,1130.2457,-37.23733)">
        <path
           style="fill:#ff4b00;fill-opacity:1;stroke:none;stroke-width:0;stroke-dasharray:none"
           d="m -377.74901,155.58506 c 1.86862,-5.45754 1.78571,-12.98486 -2.18757,-17.16691 -9.88429,-10.40364 -29.11092,-2.13452 -42.37159,-7.61991 -17.07161,-7.06181 -27.36575,-28.26471 -45.53821,-31.591974 -21.03384,-3.851163 -62.24503,15.519084 -62.24503,15.519084 0,0 33.91322,-2.18614 32.17204,8.7941 -4.20563,26.52152 -62.35497,34.62386 -80.46707,-3.8413 1.92313,52.75144 73.03024,72.30165 98.99788,48.85083 -1e-5,2e-5 -14.72095,28.0296 -37.16216,22.09564 32.62141,35.14513 67.02667,-4.57132 97.60887,-16.65052 10.81007,-4.00852 23.16107,-4.29602 33.03468,-10.24897 3.28985,-1.9835 6.91377,-4.50567 8.15816,-8.14007 z"
           id="path1945"
           sodipodi:nodetypes="aaaacaccccaa" />
        <path
           style="fill:#ff9f00;fill-opacity:1;stroke:none;stroke-width:0;stroke-dasharray:none"
           d="m -475.16561,121.92422 c -13.30286,41.27411 -45.50747,34.95786 -45.48401,34.95647 -2.46646,2.8178 27.66096,8.30919 58.02243,0.58518 14.2669,-3.62952 -11.55539,18.84354 -27.49523,34.56115 21.61775,-6.8307 41.93414,-16.59767 50.45335,-34.99859 4.61319,-11.44796 16.95795,-12.31137 31.6888,-9.90821 0,0 -34.4808,-32.85141 -56.53561,-38.97837 -9.13858,-2.53876 -28.39993,1.75343 -28.39993,1.75343 14.87185,5.89895 18.77803,-0.93653 17.7502,12.02894 z"
           id="path1947"
           sodipodi:nodetypes="ccscccacc" />
      </g>
      <g
         id="g1956">
        <path
           id="path1952"
           style="fill:#010100;fill-opacity:1;stroke:none;stroke-width:0.604647px;stroke-linejoin:round;stroke-opacity:0.6"
           d="m 893.00659,31.273312 0.004,21.0898 3.1999,0.7999 -0.004,-21.089806 h 13.59169 l -3.19959,-0.799894 z m 68.37406,2.843383 c -0.0401,-6.6e-5 -0.08,3.57e-4 -0.11967,0.0018 -0.81929,0.02449 -1.43659,0.282092 -1.84352,0.775841 -0.0721,0.0876 -0.13763,0.183275 -0.19715,0.286524 l -3.11148,-0.778023 c -0.39242,-0.07473 -0.76921,-0.107065 -1.13079,-0.09624 -0.93116,0.02787 -1.63377,0.304107 -2.09693,0.832085 -0.46739,0.532755 -0.70303,1.33549 -0.70303,2.404379 0,0.990884 0.18545,1.715178 0.55368,2.170659 0.36642,0.452336 0.99907,0.726266 1.88851,0.822707 l 1.13266,0.28309 c 0.002,0.0018 0.004,0.003 0.005,0.0048 h 3.2e-4 c 0.13302,0.120506 0.19997,0.319338 0.19997,0.597107 0,0.329835 -0.0955,0.589259 -0.28653,0.77803 -0.18181,0.179689 -0.45039,0.293235 -0.80521,0.340894 l -2.58935,-0.647106 v 0.285902 l -1.61792,-0.404322 c -0.50004,0.465935 -0.99238,0.830477 -1.47731,1.092047 -0.40596,0.21543 -0.80759,0.355146 -1.20516,0.427129 l -1.31265,-0.328082 c -0.0955,-0.531847 -0.14435,-1.118972 -0.14435,-1.763211 0,-0.706022 0.059,-1.355177 0.1756,-1.947562 l 2.29002,0.572425 2.95806,-0.207472 c 0,-0.632697 -0.12397,-1.134367 -0.37308,-1.505432 -0.24545,-0.379356 -0.57005,-0.559432 -0.97456,-0.538995 l -2.60248,-0.65054 c 0.1418,0.08986 0.26753,0.219717 0.37776,0.389635 0.24851,0.371132 0.37246,0.872735 0.37246,1.505432 l -1.98444,0.139045 c 0.18525,-0.779046 0.47763,-1.452326 0.87614,-2.017865 0.0215,-0.03023 0.0434,-0.05998 0.0653,-0.08937 l 0.29277,0.07312 c -0.0817,-0.05176 -0.16862,-0.09017 -0.2609,-0.1153 0.72601,-0.951666 1.68816,-1.441164 2.87588,-1.476687 l -3.19959,-0.799894 c -0.88377,0.02642 -1.64333,0.304464 -2.27315,0.837388 l -2.46812,-0.616794 c -0.18442,-0.02721 -0.32572,-0.04293 -0.42307,-0.04656 -0.0974,-0.01022 -0.18871,-0.01373 -0.27215,-0.01125 -0.58591,0.01754 -1.09489,0.202545 -1.52419,0.556808 -0.0252,0.02062 -0.0501,0.04208 -0.075,0.06405 l -1.07079,-0.267774 -2.6831,0.08686 10e-4,11.595704 3.1999,0.799893 -10e-4,-10.490844 2.68278,0.670541 c 0.33618,-0.756347 0.7183,-1.308571 1.14579,-1.658541 0.38246,-0.315607 0.82791,-0.496729 1.33483,-0.544926 -0.19558,0.184841 -0.37769,0.395917 -0.54618,0.633664 -0.7413,1.051899 -1.1164,2.475946 -1.11579,4.261335 0,1.817981 0.38089,3.19004 1.1361,4.107283 0.74916,0.898076 1.78143,1.255798 3.0796,1.084864 l 0.53681,0.134044 c -0.1472,-0.123499 -0.2863,-0.262918 -0.41651,-0.419008 -0.45391,-0.551341 -0.77172,-1.268229 -0.95394,-2.146292 0.28652,0.157463 0.63431,0.213344 1.04175,0.168104 l 0.001,3.15e-4 1.02644,0.256842 0.91706,0.229348 c 0.32125,0.266728 0.74029,0.370867 1.25453,0.31371 h 6.1e-4 c 0.43936,-0.04874 0.88357,-0.186298 1.33327,-0.411511 v 0.620235 l 3.19928,0.799893 v -2.19534 l 1.25296,0.313394 c 0.42385,0.107325 0.84956,0.136639 1.27765,0.08905 h 3.1e-4 c 0.38456,-0.04269 0.67199,-0.158956 0.86427,-0.348392 0.005,-0.0054 0.0105,-0.01052 0.0156,-0.01596 v 0.527119 l 3.1999,0.799894 v -2.029426 l 1.09955,0.274963 c 0.37246,0.103335 0.74691,0.133337 1.12361,0.09156 0.33799,-0.03755 0.59151,-0.144656 0.76021,-0.321213 0.16809,-0.175952 0.25184,-0.418706 0.25184,-0.728345 0,-0.260718 -0.0586,-0.447633 -0.17591,-0.561488 -0.11428,-0.119901 -0.34576,-0.199527 -0.69585,-0.238406 l -1.38639,-0.346832 c -0.23854,-0.124394 -0.43304,-0.280157 -0.57742,-0.471503 -0.32349,-0.428387 -0.48619,-1.107539 -0.48619,-2.035363 0,-1.000988 0.20624,-1.752098 0.6168,-2.250025 0.40693,-0.493749 1.02359,-0.751353 1.84288,-0.775841 0.31805,-0.0096 0.64932,0.02159 0.99456,0.09249 l -3.19896,-0.7999 c -0.30209,-0.06206 -0.59428,-0.09357 -0.8752,-0.09405 z m -13.30767,11.611951 c 0.69967,0.58704 1.5901,0.807125 2.66309,0.665856 z M 930.6902,35.033141 c -0.004,1.03e-4 -0.007,1.99e-4 -0.0103,3.14e-4 -0.0299,9.1e-5 -0.0598,3.45e-4 -0.09,0.0012 l 0.01,0.0024 c -0.62563,0.03374 -1.18688,0.221803 -1.68197,0.566802 -0.0637,0.04348 -0.12659,0.09011 -0.18904,0.139359 l -1.25203,-0.312777 -3.25895,0.10499 v 0.597422 l -2.11567,-0.528994 -3.75483,0.120924 -2.40407,4.108849 3.1999,0.799893 2.40345,-4.108849 2.67122,-0.08593 0.002,16.761923 3.19928,0.799894 -0.002,-17.665242 0.72522,-0.02346 c -0.23184,0.269805 -0.45358,0.584748 -0.66491,0.945819 l 3.19928,0.800208 c 0.43656,-0.745947 0.91744,-1.29675 1.44107,-1.653849 0.23683,-0.165093 0.48889,-0.294203 0.75584,-0.387766 0.18524,0.199183 0.35948,0.428066 0.52274,0.687417 l 3.19928,0.799894 c -0.69852,-1.110344 -1.59787,-1.670295 -2.7059,-1.67041 l -1.82039,-0.455251 c -0.41698,-0.229155 -0.87608,-0.344401 -1.37795,-0.344649 z m 27.74021,0.07249 c 0.25498,0.0062 0.51732,0.03283 0.78677,0.07999 -0.27687,0.483137 -0.41651,1.136519 -0.41651,1.9585 0,0.927825 0.1627,1.606977 0.48619,2.035363 0.32167,0.42549 0.87673,0.685355 1.65854,0.780527 l 0.963,0.240595 c 0.0141,0.01137 0.027,0.0234 0.0388,0.03561 h 3e-4 c 0.11731,0.113855 0.17592,0.300769 0.17592,0.561493 0,0.309634 -0.0841,0.552394 -0.25278,0.72834 -0.13717,0.143567 -0.33001,0.241133 -0.5793,0.292776 l -2.40407,-0.600862 v 0.349958 c -0.14475,-0.09575 -0.38444,-0.160377 -0.7199,-0.193415 l -1.70729,-0.42682 c -0.21307,-0.119799 -0.39034,-0.263929 -0.52837,-0.434318 -0.36883,-0.455475 -0.55368,-1.17977 -0.55368,-2.170659 0,-1.06895 0.23508,-1.871631 0.70304,-2.404379 0.46315,-0.527978 1.16516,-0.804211 2.09692,-0.832085 0.0834,-0.0024 0.16747,-0.0024 0.25247,-6.05e-4 z m -44.94363,0.776149 -4.25977,0.137485 4.53286,6.598531 -4.76283,7.680893 3.19991,0.799899 4.76282,-7.680898 -4.53348,-6.598525 4.26008,-0.137485 z m 26.35038,0.05279 c -0.006,0.0088 -0.0121,0.01772 -0.0181,0.02654 v -0.02594 z m -10.15901,1.980685 c -0.0397,-2.97e-4 -0.0803,6.04e-4 -0.12124,0.003 l 0.95582,0.239035 c -0.23808,-0.158847 -0.51607,-0.239477 -0.83458,-0.241847 z m 0.83458,0.241846 c 0.2075,0.138452 0.38477,0.336196 0.5318,0.59305 0.34042,0.584869 0.50962,1.451982 0.50962,2.603103 0,1.151121 -0.1686,2.044825 -0.50962,2.684657 -0.33618,0.642734 -0.83093,1.001084 -1.48637,1.072674 l 3.19928,0.7999 c 0.65604,-0.07159 1.1499,-0.429941 1.48669,-1.072674 0.34041,-0.639838 0.50993,-1.533543 0.50993,-2.684658 0,-1.151121 -0.17015,-2.018233 -0.51056,-2.603108 -0.33679,-0.588376 -0.83125,-0.866423 -1.48668,-0.832079 z m -24.3822,0.508061 -7.80713,0.384326 3.19928,0.799894 7.80776,-0.384326 z m 9.81406,6.437925 2.60779,3.961678 3.19928,0.7999 -2.60779,-3.961678 z m 11.53352,1.003309 c 0.43656,0.675325 0.91745,1.152427 1.44107,1.432319 0.36948,0.192531 0.77585,0.293749 1.21828,0.304645 l 1.98068,0.495248 c 0.51879,0.270277 1.11081,0.360908 1.7729,0.273718 l -2.19284,-0.548367 c -0.36285,-0.281687 -0.70322,-0.667288 -1.02018,-1.157663 z m -20.61361,0.705847 -8.53984,0.888009 3.19896,0.7999 8.54016,-0.888009 z" />
        <path
           id="path1954"
           style="font-weight:bold;font-size:19.7556px;-inkscape-font-specification:'sans-serif Bold';fill:#ffffff;fill-opacity:1;stroke-width:0"
           d="m 896.20639,32.073109 0.004,21.090031 13.85385,-1.789198 -6.3e-4,-3.761798 -8.54002,0.887959 -8.8e-4,-4.67383 7.80743,-0.580814 -6.3e-4,-3.780412 -7.80755,0.384287 -7.2e-4,-3.799116 8.27684,-0.208354 -6.3e-4,-3.768755 z m 37.68322,3.760183 c -0.66207,0.01982 -1.25358,0.209268 -1.77244,0.570806 -0.52312,0.357128 -1.00378,0.907882 -1.44034,1.653816 l -2e-4,-1.827536 -3.25953,0.105179 0.002,17.665161 3.25932,-0.541054 -7.2e-4,-6.553252 c 0.43671,0.675344 0.91747,1.152277 1.44064,1.43218 0.51891,0.270305 1.11043,0.3609 1.77246,0.273737 1.15447,-0.151996 2.08647,-0.859241 2.80612,-2.1121 0.71131,-1.245405 1.06396,-2.771571 1.06379,-4.590041 -1.6e-4,-1.818488 -0.35308,-3.284545 -1.06463,-4.407927 -0.71989,-1.143679 -1.65204,-1.703527 -2.80656,-1.668969 z M 945.17139,35.4956 c -0.58592,0.01754 -1.09449,0.202511 -1.52382,0.556776 -0.42774,0.350016 -0.80991,0.902164 -1.14587,1.658498 l -1.4e-4,-1.862064 -2.68283,0.08657 9.7e-4,11.595739 2.68273,-0.346469 -4e-4,-5.222662 c -9e-5,-1.113379 0.18013,-1.978819 0.53926,-2.594203 0.36174,-0.618595 0.8716,-0.94493 1.52567,-0.980858 0.22108,-0.01214 0.43897,0.01255 0.65371,0.0732 0.21858,0.05356 0.43644,0.146148 0.65337,0.277877 l -0.007,-3.184755 c -0.18458,-0.02722 -0.32584,-0.04266 -0.42322,-0.04627 -0.0976,-0.01027 -0.18829,-0.0139 -0.27217,-0.01139 z m 5.43662,-0.162731 c -1.24082,0.03714 -2.23636,0.569732 -2.97254,1.608048 -0.74148,1.051913 -1.11584,2.476173 -1.11573,4.261578 1.2e-4,1.817974 0.38146,3.190054 1.13635,4.107289 0.74921,0.898053 1.78118,1.255713 3.07952,1.084774 0.53337,-0.07022 1.06142,-0.217608 1.58445,-0.44058 0.51798,-0.214712 1.03087,-0.500812 1.53894,-0.857297 l -1.1e-4,-2.522389 c -0.50004,0.465975 -0.99245,0.830495 -1.47739,1.092075 -0.48523,0.257308 -0.96448,0.412927 -1.43749,0.465466 -0.59182,0.06573 -1.05732,-0.0817 -1.39273,-0.444545 -0.33747,-0.365075 -0.53507,-0.947087 -0.59176,-1.74491 l 5.21513,-0.465568 -4e-5,-0.929407 c -7e-5,-1.61586 -0.31572,-2.889888 -0.95268,-3.830844 -0.6406,-0.952508 -1.5084,-1.416781 -2.61392,-1.38369 z m 7.56987,-0.226585 c -0.93152,0.02788 -1.63378,0.30408 -2.09724,0.832076 -0.46763,0.53278 -0.70322,1.33546 -0.70318,2.40441 4e-5,0.990876 0.18541,1.715285 0.55412,2.170802 0.36611,0.452297 0.99891,0.726094 1.88823,0.822562 l 0.34739,0.03834 c 0.39777,0.03917 0.6604,0.122438 0.79042,0.249439 0.13327,0.120532 0.19988,0.319412 0.19988,0.597197 2e-5,0.329873 -0.0952,0.589207 -0.28628,0.777947 -0.19184,0.189451 -0.47935,0.305548 -0.86376,0.348246 -0.42811,0.04755 -0.85404,0.0183 -1.2781,-0.08904 -0.42378,-0.108633 -0.8415,-0.296853 -1.25297,-0.565588 l 10e-5,2.447609 c 0.48036,0.148676 0.94304,0.244355 1.38843,0.287479 0.4453,0.04815 0.87187,0.04503 1.28033,-0.0087 0.95125,-0.125241 1.6549,-0.476639 2.12082,-1.051859 0.46159,-0.569878 0.69076,-1.3618 0.69074,-2.379135 -3e-5,-0.971877 -0.16507,-1.671224 -0.49644,-2.100528 -0.3336,-0.432185 -0.98952,-0.715355 -1.98098,-0.848924 l -0.34526,-0.0551 c -0.35684,-0.04018 -0.60665,-0.123011 -0.74783,-0.249073 -0.13785,-0.126645 -0.20701,-0.31697 -0.20702,-0.570734 -10e-6,-0.312781 0.0915,-0.547895 0.27389,-0.704922 0.18543,-0.162532 0.4659,-0.253396 0.84003,-0.272296 0.34599,-0.01748 0.71133,0.03365 1.09542,0.152527 0.38116,0.118001 0.77351,0.303083 1.17676,0.554376 l -7e-5,-2.327968 c -0.44904,-0.167583 -0.8684,-0.288672 -1.25728,-0.362869 -0.39191,-0.07482 -0.76883,-0.107011 -1.13015,-0.0962 z m 6.28232,-0.188046 c -0.81912,0.02452 -1.43631,0.282112 -1.84316,0.775855 -0.41029,0.497934 -0.61664,1.24896 -0.61661,2.249926 2e-5,0.927857 0.16256,1.60704 0.48601,2.035416 0.3213,0.425538 0.87674,0.685413 1.65843,0.780555 l 0.3056,0.03781 c 0.35004,0.03888 0.58154,0.118396 0.69602,0.238285 0.11738,0.113854 0.17605,0.300887 0.17606,0.561608 0,0.309609 -0.0841,0.55245 -0.25241,0.728387 -0.16892,0.176557 -0.42174,0.283609 -0.75998,0.321178 -0.3765,0.04182 -0.75114,0.01167 -1.12368,-0.09168 -0.37212,-0.104497 -0.73871,-0.283451 -1.09963,-0.537675 l 5e-5,2.292093 c 0.42137,0.142862 0.82746,0.236015 1.21862,0.279827 0.39127,0.04855 0.76655,0.04887 1.12584,0.0016 0.8374,-0.110252 1.45723,-0.434815 1.86811,-0.971618 0.4073,-0.532121 0.60961,-1.274668 0.6096,-2.230563 -1e-5,-0.913182 -0.14546,-1.571096 -0.43787,-1.975921 -0.29428,-0.407376 -0.87278,-0.675968 -1.74598,-0.805322 l -0.30382,-0.05307 c -0.31388,-0.03909 -0.53354,-0.117743 -0.65765,-0.236482 -0.12114,-0.119253 -0.18166,-0.297947 -0.18166,-0.535834 -10e-6,-0.29321 0.0802,-0.513309 0.24047,-0.659956 0.16303,-0.151834 0.40993,-0.236223 0.73909,-0.252851 0.30452,-0.01538 0.62597,0.03368 0.96434,0.146407 0.33593,0.111948 0.68189,0.286982 1.03765,0.524333 l -2e-5,-2.186845 c -0.39614,-0.158283 -0.7659,-0.272773 -1.10861,-0.343134 -0.34523,-0.07091 -0.67682,-0.101789 -0.99481,-0.09227 z m -52.034,1.901047 4.53316,6.598517 -4.76256,7.680762 4.27264,-0.551804 2.67435,-4.643667 2.60782,3.961486 3.74392,-0.483521 -4.20329,-6.331777 4.00939,-6.645462 -3.75501,0.121167 -2.40357,4.10865 -2.45664,-3.95182 z m 38.16936,0.755989 c 0.4047,-0.02045 0.72913,0.159706 0.97491,0.539008 0.24882,0.371125 0.3728,0.872748 0.37284,1.505494 l -2.95799,0.207523 c 0.0696,-0.705576 0.24558,-1.251025 0.52682,-1.635538 0.2798,-0.388885 0.64156,-0.594166 1.08342,-0.616487 z m -17.83894,1.142598 c 0.65566,-0.03437 1.15019,0.24394 1.48699,0.832293 0.34057,0.584845 0.50993,1.451864 0.51004,2.602991 1.1e-4,1.151133 -0.16907,2.044906 -0.50951,2.684759 -0.33667,0.642745 -0.83113,1.000936 -1.48677,1.072511 -0.6625,0.07232 -1.17711,-0.18135 -1.54015,-0.764068 -0.3592,-0.594041 -0.53978,-1.482532 -0.53991,-2.663847 -1.3e-4,-1.181309 0.18026,-2.095683 0.53933,-2.740374 0.36291,-0.6488 0.87747,-0.989534 1.53998,-1.024265 z"
           inkscape:path-effect="#path-effect1968"
           inkscape:original-d="m 896.20639,32.073109 v 8.707946 h 8.58483 v -1.697281 h -5.46992 v -1.994748 h 4.97621 V 35.391745 H 899.3213 V 33.77039 h 5.29177 v -1.697281 z m 27.77795,2.018179 c -0.63112,0 -1.18943,0.09127 -1.67492,0.274026 -0.48549,0.178867 -0.92811,0.458831 -1.32728,0.839891 v -0.956436 h -2.89643 v 9.017283 h 2.89643 v -3.429873 c 0.39917,0.381061 0.84179,0.663074 1.32728,0.845829 0.48549,0.178866 1.0438,0.268403 1.67492,0.268403 1.11662,0 2.03335,-0.319055 2.75079,-0.956752 0.71744,-0.641591 1.07631,-1.465719 1.07631,-2.472813 0,-1.007094 -0.35887,-1.829486 -1.07631,-2.467183 -0.71744,-0.641585 -1.63417,-0.962375 -2.75079,-0.962375 z m 11.8779,0 c -0.67429,0 -1.25403,0.09915 -1.7395,0.297462 -0.4801,0.194419 -0.9061,0.50528 -1.27831,0.933007 v -1.072988 h -2.89687 v 6.532286 h 2.89687 v -3.009613 c 0,-0.641585 0.19944,-1.133259 0.59862,-1.475435 0.40457,-0.34607 0.97906,-0.519313 1.72347,-0.519313 0.25354,0 0.50437,0.02159 0.75251,0.06437 0.25353,0.03888 0.5072,0.100994 0.76074,0.18654 l -0.008,-1.889758 c -0.21577,-0.01947 -0.38044,-0.03114 -0.49372,-0.03501 -0.11329,-0.0078 -0.21847,-0.01155 -0.31557,-0.01155 z m 6.60259,0 c -1.56434,0 -2.79423,0.305027 -3.68968,0.915508 -0.89006,0.610476 -1.33508,1.448632 -1.33508,2.51405 0,1.084864 0.45312,1.92854 1.35936,2.53124 0.91162,0.598813 2.18766,0.898325 3.82752,0.898325 0.68507,0 1.37,-0.04874 2.05507,-0.14592 0.68507,-0.09332 1.37,-0.233303 2.05507,-0.419945 v -1.609795 c -0.67428,0.264413 -1.33209,0.462719 -1.97401,0.594925 -0.63652,0.128318 -1.25956,0.192471 -1.86911,0.192471 -0.7552,0 -1.34346,-0.122483 -1.76422,-0.36745 -0.42076,-0.244967 -0.66591,-0.612423 -0.73604,-1.102362 h 6.77252 v -0.594919 c 0,-1.034315 -0.42884,-1.860493 -1.28654,-2.47875 -0.85229,-0.618252 -1.99077,-0.927378 -3.41486,-0.927378 z m 10.37333,0 c -1.35936,0 -2.36793,0.167094 -3.02604,0.501494 -0.6581,0.334407 -0.98744,0.847673 -0.98744,1.539807 0,0.641585 0.25892,1.119855 0.77677,1.434815 0.51785,0.314961 1.42168,0.530765 2.71092,0.64742 l 0.50975,0.04656 c 0.58799,0.05055 0.97877,0.122586 1.17297,0.215907 0.19959,0.08943 0.29953,0.227366 0.29953,0.414008 0,0.22164 -0.14281,0.389048 -0.4287,0.501815 -0.28591,0.11276 -0.71234,0.169041 -1.27873,0.169041 -0.62574,0 -1.24309,-0.05043 -1.85265,-0.151543 -0.60416,-0.101103 -1.19483,-0.252748 -1.77202,-0.454942 v 1.586358 c 0.67429,0.136094 1.3297,0.237294 1.96621,0.3034 0.64193,0.06999 1.26212,0.104985 1.86088,0.104985 1.41331,0 2.47612,-0.174979 3.18817,-0.524931 0.71204,-0.349957 1.06806,-0.873152 1.06806,-1.569174 0,-0.664918 -0.25651,-1.152808 -0.76897,-1.463881 -0.51246,-0.311066 -1.51011,-0.534756 -2.99353,-0.670849 l -0.50977,-0.05248 c -0.52324,-0.04275 -0.88735,-0.108667 -1.09233,-0.1981 -0.1996,-0.08943 -0.29954,-0.217746 -0.29954,-0.384949 0,-0.206088 0.13231,-0.357733 0.39663,-0.454942 0.26972,-0.101097 0.67954,-0.151858 1.22975,-0.151858 0.51247,0 1.05742,0.04668 1.63461,0.139982 0.57719,0.09332 1.17595,0.233303 1.79629,0.419946 v -1.586358 c -0.69047,-0.124431 -1.32968,-0.215702 -1.91766,-0.274026 -0.58797,-0.05835 -1.14913,-0.08749 -1.68316,-0.08749 z m 9.86357,0 c -1.35935,0 -2.36836,0.167094 -3.02647,0.501494 -0.6581,0.334407 -0.98701,0.847673 -0.98701,1.539807 0,0.641585 0.25893,1.119855 0.77678,1.434815 0.51785,0.314961 1.42124,0.530765 2.71047,0.64742 l 0.50977,0.04656 c 0.58797,0.05055 0.9792,0.122586 1.17339,0.215907 0.19959,0.08943 0.29953,0.227366 0.29953,0.414008 0,0.22164 -0.14324,0.389048 -0.42913,0.501815 -0.2859,0.11276 -0.7119,0.169041 -1.2783,0.169041 -0.62574,0 -1.24352,-0.05043 -1.85308,-0.151543 -0.60416,-0.101103 -1.19483,-0.252748 -1.77201,-0.454942 v 1.586358 c 0.67428,0.136094 1.32968,0.237294 1.96621,0.3034 0.64191,0.06999 1.26254,0.104985 1.86131,0.104985 1.41329,0 2.47568,-0.174979 3.18772,-0.524931 0.71205,-0.349957 1.06807,-0.873152 1.06807,-1.569174 0,-0.664918 -0.25609,-1.152808 -0.76854,-1.463881 -0.51246,-0.311066 -1.51054,-0.534756 -2.99397,-0.670849 l -0.50976,-0.05248 c -0.52323,-0.04275 -0.88735,-0.108667 -1.09234,-0.1981 -0.19958,-0.08943 -0.29908,-0.217746 -0.29908,-0.384949 0,-0.206088 0.13187,-0.357733 0.39618,-0.454942 0.26972,-0.101097 0.67996,-0.151858 1.23019,-0.151858 0.51245,0 1.05698,0.04668 1.63418,0.139982 0.57718,0.09332 1.17594,0.233303 1.79629,0.419946 v -1.586358 c -0.69047,-0.124431 -1.32969,-0.215702 -1.91767,-0.274026 -0.58798,-0.05835 -1.14869,-0.08749 -1.68273,-0.08749 z m -56.28413,0.157481 3.26879,3.190214 -3.43048,3.342072 h 3.06636 l 2.01476,-2.064737 2.03904,2.064737 h 3.06679 l -3.4309,-3.353633 3.26922,-3.178653 h -3.06679 l -1.87736,1.936315 -1.85264,-1.936315 z m 36.03119,1.230462 c 0.51785,0 0.93576,0.12249 1.25402,0.367456 0.32367,0.241079 0.48549,0.560133 0.48549,0.956752 h -3.7625 c 0.0863,-0.427722 0.30477,-0.754346 0.6554,-0.979873 0.35063,-0.229415 0.80659,-0.344335 1.36759,-0.344335 z m -19.54075,0.128421 c 0.62034,0 1.09249,0.163316 1.41614,0.48994 0.32905,0.326624 0.49329,0.801115 0.49329,1.423254 0,0.622146 -0.16424,1.096322 -0.49329,1.422947 -0.32365,0.326624 -0.7958,0.489933 -1.41614,0.489933 -0.62034,0 -1.09774,-0.163309 -1.43218,-0.489933 -0.32905,-0.330519 -0.49372,-0.804689 -0.49372,-1.422947 0,-0.618251 0.16467,-1.090692 0.49372,-1.417317 0.33444,-0.330512 0.81184,-0.495877 1.43218,-0.495877 z" />
      </g>
      <g
         id="g1962">
        <path
           id="path1958"
           style="fill:#010100;fill-opacity:1;stroke:none;stroke-width:0.604647px;stroke-linejoin:round;stroke-opacity:0.6"
           d="m 896.25991,4.6740776 -3.19897,0.7998936 -0.0547,4.6119148 6.98129,0.903942 -0.19216,18.242359 5.01124,0.0153 3.1999,-0.7999 -5.01123,-0.0153 0.19216,-18.242044 -6.9813,-0.9042562 z m 31.29537,4.216337 -3.19959,0.7998936 -0.12248,18.8069728 -3.63298,-0.01125 0.0169,-2.218154 -3.19927,0.799899 c -0.43189,0.766735 -0.91133,1.359821 -1.43888,1.777899 -1.06226,-0.113589 -1.95472,-0.577952 -2.66966,-1.39951 -0.83381,-0.97578 -1.2475,-2.23795 -1.23359,-3.777019 0.0169,-1.87053 0.55939,-3.209134 1.6151,-4.006361 0.0756,-0.05666 0.15429,-0.110246 0.23559,-0.161852 -1.4683,0.03205 -2.61991,0.350393 -3.43549,0.961751 -1.05572,0.797228 -1.59787,2.135825 -1.6148,4.006362 -0.0139,1.539068 0.39948,2.801239 1.23328,3.777018 0.83139,0.954617 1.90111,1.427318 3.19928,1.427318 l 3.1999,-0.7999 c -0.0344,0 -0.0687,-2.72e-4 -0.10279,-0.0012 l 1.00018,-0.250282 -0.005,0.663667 3.64548,0.01125 3.18678,-0.796774 -0.005,0.80646 3.24209,0.01 3.1999,-0.7999 -3.24208,-0.01 z M 913.9264,19.500931 c 0.41489,-0.0091 0.8551,0.0048 1.32014,0.04124 l 2.21409,-0.553367 c 0.0115,0.113462 0.0169,0.231761 0.016,0.354958 l -0.003,0.373387 3.19991,-0.799899 0.003,-0.373388 c 0.006,-0.754902 -0.22177,-1.32694 -0.68554,-1.717905 -0.46739,-0.402756 -1.2062,-0.654603 -2.22503,-0.755216 -0.83743,-0.08266 -1.6271,-0.05472 -2.36719,0.08561 l -2.11067,0.527433 0.0319,-3.603291 -3.19928,0.7999 -0.0343,3.845446 3.19959,-0.7999 10e-4,-0.09374 c 0.41308,-0.01778 0.83954,-0.0048 1.27921,0.03845 1.01944,0.100614 1.75824,0.352461 2.22503,0.755217 0.3215,0.27067 0.52944,0.628143 0.62492,1.072982 -1.46708,-0.0048 -2.63608,0.2605 -3.48924,0.802089 z m -5.74926,-8.66452 -3.19991,0.799899 5.92987,0.767715 3.19959,-0.7999 z m 26.08541,4.353193 -3.19959,0.799899 -3.5408,4.614721 3.19959,-0.799894 z m 7.72307,0.662415 c -0.82362,-0.0099 -1.54254,0.22257 -2.15222,0.700852 l 2.66153,-0.665541 c -0.17398,-0.02153 -0.34374,-0.03332 -0.50931,-0.03531 z m -2.15222,0.700852 -0.53774,0.134359 c -1.39251,-0.172264 -2.51525,0.279836 -3.35208,1.37201 -0.84469,1.110193 -1.27705,2.723488 -1.28733,4.828446 -0.0103,2.144858 0.41471,3.825693 1.26483,5.027791 0.16385,0.228823 0.3399,0.435068 0.52775,0.618984 l -2.0513,-0.0062 -3.69327,-5.753018 -3.1996,0.799586 3.69297,5.753325 3.47456,0.01064 2.09441,-0.523679 c 0.7221,0.573671 1.59729,0.858327 2.61873,0.858327 0.598,0 1.18979,-0.09129 1.77509,-0.271843 l 2.53405,-0.633356 c 0.2229,-0.04263 0.44481,-0.09836 0.66585,-0.166538 0.39604,-0.117241 0.78916,-0.27382 1.17954,-0.469315 0.67637,1.030688 1.5881,1.541052 2.7234,1.541052 0.55454,0 1.0453,-0.123166 1.47387,-0.368393 l 1.72603,-0.431506 c 0.81291,0 1.48904,-0.265126 2.03318,-0.791459 0.0534,0.163551 0.11295,0.315607 0.17842,0.455879 0.35795,0.758585 0.8732,1.135479 1.54073,1.135479 l 1.8607,-0.465258 -3.1e-4,0.199038 1.72353,0.0054 2.2619,-0.565557 c 0.27091,0.3825 0.67384,0.574252 1.20609,0.575866 l 1.31233,0.0042 3.19897,-0.799586 -1.31202,-0.0042 c -0.61855,-0.0018 -1.06282,-0.260162 -1.32826,-0.776772 -0.26363,-0.52562 -0.39556,-1.412843 -0.39495,-2.658409 l 0.002,-3.093671 3.16334,-0.791151 v -2.16691 l -3.19896,0.7999 v 1.066428 l -0.77646,-0.0728 0.002,-1.972559 0.81302,-0.203101 10e-4,-2.794642 -3.19959,0.7999 -10e-4,2.493117 -0.26184,0.06562 10e-4,-0.982376 -3.1999,0.7999 -0.005,5.067474 c -10e-4,0.935571 -0.10644,1.661564 -0.31746,2.180351 -0.0621,0.152492 -0.13098,0.282244 -0.20685,0.389321 -0.14517,-0.647342 -0.21745,-1.434743 -0.21591,-2.361256 l 0.0115,-6.551351 -3.19928,0.799894 -0.0112,6.551042 -6.1e-4,3.09e-4 c -10e-4,0.90229 0.0667,1.672774 0.20435,2.310332 l -2.46843,0.617109 c -0.13045,0.216542 -0.27219,0.409938 -0.42558,0.58086 -0.70484,-0.229947 -1.2951,-0.718375 -1.76602,-1.469498 -0.0409,-0.06566 -0.0805,-0.132877 -0.11905,-0.201535 0.0743,-0.02122 0.14506,-0.0517 0.21217,-0.09156 l -0.23091,0.05781 c -0.59436,-1.078691 -0.8917,-2.521784 -0.88551,-4.319762 0.006,-1.93082 0.35877,-3.407773 1.05049,-4.420375 0.20983,-0.305341 0.44256,-0.556385 0.69803,-0.753965 l -1.11829,0.279655 c -1.16213,-0.143845 -2.09338,0.276421 -2.77964,1.274209 -0.69172,1.012603 -1.04414,2.489556 -1.05019,4.420376 -6e-5,0.0214 -10e-6,0.04245 0,0.06374 l -3.85356,-0.198729 -2.62842,0.656792 c -0.0868,-0.594556 -0.12892,-1.237616 -0.1256,-1.929127 0.0103,-2.104897 0.44264,-3.718313 1.28733,-4.828445 0.21169,-0.276499 0.44171,-0.511767 0.68991,-0.70647 z m 9.57846,0.967998 2.08161,-0.520245 c -0.80649,-0.09983 -1.50227,0.07219 -2.08161,0.520245 z m -0.6321,9.436291 2.68996,-0.67241 c 0.46195,0.01252 0.81272,-0.261407 1.05518,-0.820524 0.24125,-0.56286 0.36285,-1.377694 0.36527,-2.445622 0.002,-1.067504 -0.11488,-1.892436 -0.35371,-2.477493 -0.23944,-0.59461 -0.58852,-0.914885 -1.04986,-0.959569 l -3.19959,0.7999 c 0.46134,0.04468 0.81073,0.364953 1.05017,0.959563 0.23823,0.585056 0.35613,1.409994 0.35371,2.477499 -0.002,1.067927 -0.12464,1.882508 -0.36589,2.445307 -0.14362,0.331232 -0.32504,0.562491 -0.54524,0.693349 z m -6.30951,-8.447355 -3.1999,0.7999 c 0.45348,0.04474 0.8156,0.310474 1.08829,0.795522 0.27633,0.475736 0.41237,1.082167 0.40995,1.821953 l 3.19928,-0.799894 c 0.003,-0.739786 -0.133,-1.346222 -0.40933,-1.821959 -0.27268,-0.485048 -0.63541,-0.750778 -1.08829,-0.795522 z m -24.07161,3.128662 c -0.66217,6.05e-4 -1.17888,0.1426 -1.54605,0.427135 l -1.50012,0.374953 c 0.0456,0.0012 0.0921,0.003 0.13904,0.006 l 1.96069,0.1103 -0.004,0.546492 c -0.007,0.969491 -0.25285,1.769826 -0.73959,2.405008 -0.21582,0.277756 -0.45403,0.492805 -0.7146,0.645231 l 2.09505,-0.523685 c 0.72375,0.01814 1.32908,-0.290315 1.81945,-0.921446 0.48613,-0.635182 0.73142,-1.43545 0.73928,-2.405002 l 0.004,-0.546492 -1.96099,-0.1103 c -0.10053,-0.0054 -0.19787,-0.0082 -0.29247,-0.0081 z m -2.40469,4.515051 -1.10423,0.276215 c 0.40489,0.01016 0.77272,-0.0823 1.10423,-0.276215 z m -0.64148,-3.712963 c -0.73633,-0.02231 -1.30409,0.118753 -1.69978,0.424946 z m 44.93113,-0.659295 0.26308,0.02467 -0.002,4.181963 c -6e-4,1.216864 0.12612,2.091389 0.37776,2.62123 l -0.64617,-0.0018 0.002,-1.487626 -3.1999,0.7999 -3.2e-4,0.182162 c -0.0724,-0.109574 -0.14002,-0.230685 -0.20278,-0.363701 -0.10529,-0.225606 -0.19488,-0.481626 -0.26903,-0.7674 l 2.47843,-0.619921 c 0.37549,0.0107 0.66828,-0.245396 0.88051,-0.766777 0.21102,-0.518847 0.31594,-1.245089 0.31715,-2.180659 z m -15.80767,2.371263 c 0.016,0.391291 0.048,0.763808 0.0956,1.117666 l -1.68291,0.420574 c -0.55748,0.464551 -1.10771,0.81264 -1.64948,1.041741 l 3.1996,-0.7999 c 0.0745,-0.0315 0.14948,-0.06553 0.22435,-0.101545 0.16335,0.841518 0.42707,1.562965 0.78958,2.162533 l -2.57436,0.643671 c -0.13976,0.08334 -0.28008,0.161374 -0.42057,0.234657 -1.40055,-0.03301 -2.51911,-0.614394 -3.33676,-1.756342 -0.54914,-0.776446 -0.92039,-1.752908 -1.11205,-2.924938 l 5.23402,0.270277 z" />
        <path
           id="path1960"
           style="font-weight:bold;font-size:19.7556px;-inkscape-font-specification:'sans-serif Bold';fill:#ffffff;fill-opacity:1;stroke-width:0"
           d="m 927.55526,8.8905407 -0.12758,19.6164743 3.24231,0.0099 0.0343,-5.741855 3.69333,5.75324 3.47416,0.01061 -4.73663,-7.308382 4.46453,-5.637423 -3.33712,-0.403432 -3.54054,4.614666 0.062,-10.3756854 z m -31.29508,-4.2163865 -0.0538,4.611881 6.98095,0.9040798 -0.19195,18.24228 5.01103,0.01531 0.17079,-17.611362 5.92965,0.76793 0.0355,-4.0679751 z m 67.48855,11.2852598 -0.001,2.794731 -0.81244,-0.09822 -0.002,2.273708 0.81275,0.07639 -0.002,4.182107 c -6.6e-4,1.245567 0.13128,2.132726 0.39491,2.658362 0.265,0.516595 0.70969,0.774807 1.32812,0.776696 l 1.312,0.004 7e-5,-2.175654 -0.78101,-0.02345 c -0.26368,-0.0079 -0.44087,-0.09083 -0.53046,-0.249012 -0.0898,-0.164269 -0.13474,-0.471467 -0.13462,-0.920993 l 0.001,-4.102821 1.575,0.148031 2e-5,-2.16693 -1.57442,-0.190335 7.4e-4,-2.741846 z m -45.2557,-3.041901 c -0.83499,-0.103312 -1.68162,-0.139504 -2.53977,-0.107044 -0.86944,0.02353 -1.74723,0.113173 -2.63348,0.270117 l -0.034,3.845414 c 0.65884,-0.371769 1.3636,-0.62783 2.11235,-0.769778 0.74032,-0.140342 1.52975,-0.16799 2.36715,-0.08532 1.01934,0.100628 1.75826,0.352385 2.22551,0.755141 0.4639,0.390972 0.69135,0.962971 0.6856,1.717855 l -0.003,0.373313 -2.22705,-0.174896 c -2.11076,-0.165764 -3.70929,0.136477 -4.75573,0.920604 -1.05543,0.79722 -1.59793,2.135714 -1.61483,4.006267 -0.0139,1.539085 0.39977,2.801279 1.23335,3.777054 0.83125,0.954644 1.90131,1.427346 3.19917,1.427346 0.94589,0 1.73981,-0.209026 2.38703,-0.623406 0.64078,-0.419206 1.21421,-1.080621 1.722,-1.982343 l -0.0169,2.218324 3.64552,0.01113 0.0582,-8.284663 c 0.0163,-2.321014 -0.41366,-4.039428 -1.29919,-5.167961 -0.89126,-1.152514 -2.38084,-1.863468 -4.51206,-2.12716 z m 24.00212,2.969742 c -1.39207,-0.172239 -2.51535,0.279806 -3.35181,1.372039 -0.84469,1.110176 -1.27714,2.723624 -1.28723,4.828587 -0.0103,2.144869 0.4146,3.82566 1.26479,5.027737 0.8423,1.176328 2.00392,1.757971 3.46404,1.757971 0.59818,0 1.1898,-0.09128 1.77518,-0.271794 0.57876,-0.17131 1.15156,-0.42663 1.71804,-0.764539 l 0.0101,-2.946268 c -0.5577,0.464542 -1.10774,0.812401 -1.64952,1.041519 -0.54293,0.22442 -1.07951,0.330933 -1.60943,0.317645 -0.66408,-0.01665 -1.18587,-0.263736 -1.56124,-0.74361 -0.37801,-0.48322 -0.59798,-1.199377 -0.65774,-2.146558 l 5.83247,0.300983 0.004,-1.083915 c 0.006,-1.883538 -0.33862,-3.420772 -1.04203,-4.625111 -0.70849,-1.220284 -1.67335,-1.911764 -2.90931,-2.064686 z m 8.99811,1.113321 c -1.1623,-0.14381 -2.09359,0.276579 -2.77969,1.274388 -0.6917,1.012577 -1.04412,2.48929 -1.05026,4.420128 -0.006,1.932055 0.33714,3.45449 1.02327,4.555131 0.68107,1.085905 1.61143,1.623366 2.7764,1.623366 1.13348,0 2.00073,-0.515017 2.61529,-1.534746 0.6101,-1.00608 0.91368,-2.399593 0.91721,-4.189781 0.004,-1.789144 -0.29417,-3.217567 -0.89921,-4.296327 -0.60901,-1.092158 -1.47208,-1.712231 -2.60301,-1.852159 z m 4.8605,0.859755 -0.0115,6.551389 -4.1e-4,-2e-5 c -0.003,1.451393 0.17591,2.56193 0.53289,3.326334 0.35778,0.758605 0.87304,1.135555 1.54048,1.135555 0.37067,0 0.70662,-0.142902 1.00842,-0.426877 0.30303,-0.288156 0.5875,-0.730773 0.85409,-1.327188 l -0.002,1.487814 1.72319,0.0053 0.008,-10.068771 -1.72011,-0.207949 -0.006,5.067277 c -0.001,0.935545 -0.10647,1.661716 -0.31747,2.180548 -0.21204,0.521439 -0.50495,0.777642 -0.87995,0.766936 -0.15494,-0.0044 -0.29324,-0.06712 -0.41509,-0.189145 -0.11879,-0.122205 -0.21565,-0.293971 -0.29043,-0.515325 -0.0578,-0.171002 -0.0986,-0.441999 -0.12198,-0.812269 -0.0235,-0.376693 -0.0346,-0.987613 -0.0334,-1.83249 4.1e-4,-0.287828 0.003,-0.860174 0.008,-1.716727 0.005,-0.862558 0.007,-1.577739 0.008,-2.146422 l 0.002,-1.049779 z m -13.88367,0.649405 c 0.4532,0.04474 0.81556,0.310446 1.08848,0.795485 0.27618,0.475708 0.41233,1.082288 0.40952,1.82211 l -3.31739,-0.248318 c 0.082,-0.816903 0.28284,-1.427527 0.60104,-1.831104 0.3163,-0.408543 0.72293,-0.58708 1.21835,-0.538173 z m 9.01659,1.071674 c 0.46131,0.04467 0.81042,0.365031 1.04996,0.959624 0.2384,0.585054 0.35613,1.41015 0.35365,2.477686 -0.002,1.067898 -0.12407,1.882478 -0.36535,2.445331 -0.24253,0.55913 -0.59346,0.833267 -1.05536,0.820809 -0.4744,-0.01279 -0.83948,-0.311166 -1.09286,-0.897966 -0.25059,-0.596455 -0.37503,-1.446373 -0.37196,-2.546831 0.003,-1.100073 0.13212,-1.929855 0.3857,-2.487438 0.25626,-0.561015 0.62243,-0.81709 1.09622,-0.771215 z m -32.79551,2.065265 1.96069,0.110046 -0.004,0.546647 c -0.007,0.969503 -0.2529,1.76987 -0.73936,2.405018 -0.49019,0.631132 -1.09538,0.93956 -1.81912,0.921412 -0.58635,-0.0147 -1.04852,-0.199998 -1.38337,-0.557663 -0.32909,-0.368424 -0.49162,-0.866198 -0.48639,-1.492343 0.006,-0.681239 0.2176,-1.186653 0.63295,-1.514304 0.41999,-0.32516 1.0345,-0.463953 1.83876,-0.418813 z"
           inkscape:path-effect="#path-effect1972"
           inkscape:original-d="m 917.08053,19.628838 v 9.07571 h 2.82225 v -2.724026 l 3.44472,2.724026 h 3.4215 l -4.65124,-3.534549 4.31213,-2.998052 h -3.2796 l -3.24751,2.397196 v -4.940305 z m -21.10288,0.36745 v 1.697286 h 3.9101 v 7.010974 h 3.0351 v -7.010974 h 3.90207 v -1.697286 z m 65.20056,0.320898 v 1.854761 h -1.40331 v 1.493249 h 1.40331 v 2.770269 c 0,0.824339 0.23096,1.409644 0.69342,1.755713 0.46772,0.342176 1.25879,0.51337 2.37292,0.51337 h 2.42021 v -1.493243 h -1.45061 c -0.48349,0 -0.80668,-0.05248 -0.9696,-0.15748 -0.16291,-0.108879 -0.24451,-0.315063 -0.24451,-0.61836 v -2.770269 h 2.90882 v -1.493249 h -2.90882 v -1.854761 z m -51.23163,1.697281 c -0.60962,0 -1.21937,0.02914 -1.82899,0.08749 -0.60962,0.05442 -1.21661,0.136094 -1.82097,0.244967 v 1.592296 c 0.4467,-0.178867 0.93033,-0.313014 1.45061,-0.402447 0.52028,-0.08943 1.08232,-0.134045 1.68667,-0.134045 0.74626,0 1.29571,0.07756 1.64784,0.233092 0.35209,0.151651 0.52786,0.392833 0.52786,0.723345 v 0.163418 h -1.66302 c -1.52404,0 -2.64342,0.178758 -3.35815,0.536491 -0.70947,0.357734 -1.0642,0.919711 -1.0642,1.685726 0,0.629921 0.28379,1.143182 0.85136,1.5398 0.57283,0.392731 1.31618,0.588987 2.2306,0.588987 0.67794,0 1.2534,-0.08954 1.72638,-0.268403 0.47297,-0.182754 0.89865,-0.472332 1.27703,-0.86895 v 0.968312 h 2.8459 v -3.72702 c 0,-1.045979 -0.35473,-1.800428 -1.06421,-2.263152 -0.7042,-0.466606 -1.85234,-0.699909 -3.44471,-0.699909 z m 21.67045,0 c -1.52404,0 -2.72225,0.30534 -3.59464,0.915822 -0.86713,0.610476 -1.3007,1.448317 -1.3007,2.513742 0,1.084864 0.44145,1.928534 1.32435,2.531234 0.88815,0.598818 2.13089,0.898324 3.72851,0.898324 0.66743,0 1.33471,-0.04873 2.00214,-0.145919 0.66742,-0.09332 1.33512,-0.233303 2.00255,-0.419946 V 26.69793 c -0.65692,0.264412 -1.2982,0.462718 -1.92359,0.594924 -0.62012,0.128318 -1.22711,0.192478 -1.82096,0.192478 -0.73575,0 -1.30844,-0.122484 -1.71835,-0.367457 -0.40992,-0.244966 -0.64917,-0.612416 -0.71749,-1.102356 h 6.59805 v -0.594924 c 0,-1.034316 -0.4178,-1.860493 -1.25339,-2.478745 -0.83034,-0.618257 -1.93907,-0.927383 -3.32648,-0.927383 z m 10.91779,0 c -1.52405,0 -2.71715,0.303297 -3.57902,0.909885 -0.85661,0.606588 -1.28464,1.446479 -1.28464,2.519679 0,1.073194 0.42803,1.913085 1.28464,2.519673 0.86187,0.606594 2.05497,0.909885 3.57902,0.909885 1.51878,0 2.704,-0.303291 3.55536,-0.909885 0.85662,-0.606588 1.28465,-1.446479 1.28465,-2.519673 0,-1.0732 -0.42803,-1.913091 -1.28465,-2.519679 -0.85136,-0.606588 -2.03658,-0.909885 -3.55536,-0.909885 z m 6.79527,0.15748 v 3.989492 h -6e-4 c 0,0.882663 0.26568,1.55546 0.79647,2.018179 0.53605,0.462718 1.31369,0.693971 2.33321,0.693971 0.57283,0 1.09588,-0.08954 1.56886,-0.268403 0.47824,-0.182754 0.92991,-0.464453 1.3556,-0.845514 v 0.944876 h 2.82224 v -6.532601 h -2.82224 v 3.225526 c 0,0.594924 -0.16789,1.059481 -0.50424,1.393881 -0.33633,0.334406 -0.79909,0.5015 -1.38769,0.5015 -0.24174,0 -0.45693,-0.0367 -0.64611,-0.110608 -0.18394,-0.07388 -0.33372,-0.178867 -0.44933,-0.314961 -0.0893,-0.104984 -0.15242,-0.272393 -0.18919,-0.501808 -0.0368,-0.233309 -0.0553,-0.612423 -0.0553,-1.13736 0,-0.178866 0.002,-0.534653 0.008,-1.067359 0.005,-0.5366 0.008,-0.981614 0.008,-1.335454 v -0.653357 z m -17.72911,1.230783 c 0.50452,0 0.91208,0.122484 1.22214,0.36745 0.31533,0.241079 0.47299,0.559825 0.47299,0.956443 h -3.6656 c 0.0841,-0.427727 0.29694,-0.754351 0.63853,-0.979879 0.3416,-0.229415 0.78538,-0.344014 1.33194,-0.344014 z m 10.93384,0.104985 c 0.61487,0 1.08508,0.167094 1.41091,0.501501 0.32583,0.330512 0.48902,0.808781 0.48902,1.434815 0,0.626027 -0.16319,1.106347 -0.48902,1.440753 -0.32583,0.330512 -0.79604,0.495563 -1.41091,0.495563 -0.62538,0 -1.10348,-0.165051 -1.43456,-0.495563 -0.32584,-0.334406 -0.48903,-0.814726 -0.48903,-1.440753 0,-0.626034 0.16319,-1.104303 0.48903,-1.434815 0.33108,-0.334407 0.80918,-0.501501 1.43456,-0.501501 z m -32.39144,2.257208 h 1.46622 v 0.239035 c 0,0.423834 -0.1813,0.777576 -0.54392,1.061428 -0.36262,0.279964 -0.80918,0.419946 -1.33996,0.419946 -0.42568,0 -0.75954,-0.07377 -1.00128,-0.221537 -0.23649,-0.151646 -0.35473,-0.359572 -0.35473,-0.623984 0,-0.287739 0.14742,-0.505594 0.44172,-0.653351 0.29955,-0.147758 0.74335,-0.221537 1.33195,-0.221537 z" />
      </g>
    </g>
  </g>
</svg>
